<?xml version="1.0" encoding="UTF-8"?>
<svg xmlns="http://www.w3.org/2000/svg" version="1.1" xmlns:xlink="http://www.w3.org/1999/xlink" viewBox="0 0 465.61 195.03">
  <!-- Generator: Adobe Illustrator 30.0.0, SVG Export Plug-In . SVG Version: 2.1.1 Build 123)  -->
  <defs>
    <style>
      .st0 {
        fill: #fff;
      }

      .st1 {
        fill: #121112;
      }

      .st2 {
        display: none;
      }

      .st3 {
        fill: url(#linear-gradient);
      }
    </style>
    <linearGradient id="linear-gradient" x1="88.57" y1="87.34" x2="88.57" y2="35.24" gradientUnits="userSpaceOnUse">
      <stop offset="0" stop-color="#76b82a"/>
      <stop offset=".15" stop-color="#6db52b"/>
      <stop offset=".39" stop-color="#54ae30"/>
      <stop offset=".7" stop-color="#2da337"/>
      <stop offset="1" stop-color="#009640"/>
    </linearGradient>
  </defs>
  <g id="CMYK_černá" class="st2">
    <path class="st1" d="M0,86.6v-50.66h23.69c9.44,0,16.08,5.11,16.08,13.5,0,5.07-2.54,8.95-7.05,11.53,5.97,2.24,8.47,6.38,8.47,11.79,0,7.68-5.89,13.84-15.82,13.84H0ZM21.79,56.57c3.39,0,5.22-2.54,5.22-5.19s-2.01-5.19-5.6-5.19h-9.14v10.37h9.51ZM22.27,76.37c3.54,0,5.6-2.65,5.6-5.15,0-2.76-2.01-5.26-5.6-5.26h-10v10.41h10ZM139.15,35.94h36.86v10.33h-24.58v9.66h19.29v10.33h-19.29v20.33h-12.27v-50.66ZM211.21,86.6h-12.27v-50.66h12.27v50.66ZM276.59,76.3h-25.7v-40.36h-12.27v50.66h37.98v-10.3ZM336.64,76.3h-25.7v-40.36h-12.27v50.66h37.98v-10.3ZM358.71,86.6h36.3v-10.3h-24.02v-10.33h20.7v-10.3h-20.7v-9.4h23.65v-10.33h-35.92v50.66ZM412.71,86.6h14.36l12.09-17.31,12.09,17.31h14.36l-19.21-25.93,18.24-24.73h-14.36l-11.12,15.78-11.12-15.78h-14.36l18.24,24.73-19.21,25.93Z"/>
    <path class="st3" d="M90.21,35.24c-.66-.04-1.11.71-.75,1.27,5.09,8.04,13.76,16.55,13.76,24.18,0,8.09-6.56,14.65-14.65,14.65-8.09,0-14.65-6.56-14.65-14.65,0-7.63,8.68-16.14,13.76-24.18.36-.56-.09-1.31-.75-1.27-13.9.8-24.83,11.91-24.83,25.99,0,15.03,12.12,26.11,26.45,26.11,15.03,0,26.49-11.9,26.49-26.11s-10.94-25.16-24.83-25.98Z"/>
    <path class="st1" d="M424.75,21.22c0-3.36,2.46-5.69,5.89-5.69s5.84,2.34,5.84,5.7-2.44,5.72-5.84,5.72-5.89-2.35-5.89-5.73ZM445.14,15.51c0-2.41,1.77-4.09,4.23-4.09s4.2,1.68,4.2,4.1-1.76,4.11-4.2,4.11-4.23-1.69-4.23-4.11ZM436.48,2.85c0-1.68,1.23-2.85,2.95-2.85s2.92,1.17,2.92,2.85-1.22,2.86-2.92,2.86-2.95-1.18-2.95-2.86Z"/>
    <path class="st1" d="M1.27,131.74v-17.41h7.52c3.29,0,5.31,2.22,5.31,4.87,0,1.4-.72,2.82-1.91,3.51,1.63.69,2.56,2.28,2.56,3.99,0,2.84-2.3,5.04-5.45,5.04H1.27ZM8.78,121.74c1.6,0,2.59-1.17,2.59-2.48s-.91-2.54-2.59-2.54H3.97v5.02h4.81ZM3.97,129.33h5.32c1.7,0,2.78-1.24,2.78-2.68s-1.13-2.64-2.78-2.64H3.97v5.32ZM25.01,123.06c0-5.22,3.86-8.99,8.99-8.99s9,3.77,9,8.99-3.83,8.94-9,8.94-8.99-3.68-8.99-8.94ZM34,129.45c3.73,0,6.18-2.58,6.18-6.41s-2.45-6.41-6.18-6.41-6.17,2.67-6.17,6.41,2.49,6.41,6.17,6.41ZM51.9,114.33h14.16v2.53h-5.73v14.89h-2.68v-14.89h-5.74v-2.53ZM75.53,114.33h14.16v2.53h-5.73v14.89h-2.68v-14.89h-5.74v-2.53ZM112.72,131.74h-12.62v-17.41h2.71v14.96h9.91v2.45ZM125.88,131.74h-2.69v-17.41h2.69v17.41ZM138.35,131.74v-17.41h2.69l10.6,13.27v-13.27h2.69v17.41h-2.72l-10.58-13.14v13.14h-2.69ZM165.71,123.03c0-5.08,3.91-8.96,8.95-8.96,3.17,0,5.81,1.5,7.44,3.95l-2.09,1.46c-1.44-1.92-3.05-2.86-5.35-2.86-3.58,0-6.14,2.69-6.14,6.41s2.62,6.41,6.21,6.41c3.35,0,5.25-2.01,5.59-4.37h-6v-2.44h8.8c.04.35.05.68.05,1.01,0,4.53-3.1,8.35-8.44,8.35-5.05,0-9.01-3.87-9.01-8.96ZM3.65,153.99c-1.46-1.45-2.03-2.55-2.03-3.89,0-2.65,2.14-4.51,5.17-4.51s4.95,1.77,4.95,4.23c0,2.19-1.89,3.65-4.23,4.64l4.1,3.91c.36-.58.51-1.43.51-2.45,0-.6-.06-1.33-.19-2.18h2.41c.09.79.15,1.51.15,2.12,0,1.59-.29,2.87-1.15,4.01l3.53,3.39h-3.49l-1.68-1.56c-1.06.82-2.78,1.82-5.32,1.82-3.76,0-6.39-1.99-6.39-4.81,0-1.87,1.27-3.51,3.65-4.72ZM6.48,161.28c1.65,0,2.86-.58,3.57-1.2l-4.78-4.55c-.92.44-2.72,1.31-2.72,3.05,0,1.58,1.64,2.7,3.94,2.7ZM5.9,152.92c2.04-.9,3.37-1.74,3.37-3.03s-.99-2.12-2.45-2.12c-1.6,0-2.72.92-2.72,2.26,0,1.22.77,1.91,1.8,2.89ZM39.3,145.84h12.12v2.45h-9.43v4.86h7.4v2.45h-7.4v7.66h-2.69v-17.41ZM64.72,163.26h-2.69v-17.41h2.69v17.41ZM89.81,163.26h-12.62v-17.41h2.71v14.96h9.91v2.45ZM112.88,163.26h-12.62v-17.41h2.71v14.96h9.91v2.45ZM126.03,163.26h-2.69v-17.41h2.69v17.41ZM138.51,163.26v-17.41h2.69l10.6,13.27v-13.27h2.69v17.41h-2.72l-10.58-13.14v13.14h-2.69ZM165.87,154.55c0-5.08,3.91-8.96,8.95-8.96,3.17,0,5.81,1.5,7.44,3.95l-2.09,1.46c-1.44-1.92-3.05-2.86-5.35-2.86-3.58,0-6.14,2.69-6.14,6.41s2.62,6.41,6.21,6.41c3.35,0,5.24-2.01,5.59-4.37h-6v-2.44h8.8c.04.35.05.68.05,1.01,0,4.53-3.1,8.35-8.44,8.35-5.05,0-9.02-3.87-9.02-8.96ZM1.27,177.36h12.21v2.45H3.96v4.8h8.17v2.45H3.96v5.27h9.78v2.45H1.27v-17.41ZM29.89,185.82l-6.12-8.46h3.36l4.5,6.42,4.48-6.42h3.37l-6.1,8.46,6.44,8.95h-3.37l-4.81-6.82-4.81,6.82h-3.37l6.44-8.95ZM50.1,194.78v-17.4h7.16c3.59,0,5.91,2.22,5.91,5.45s-2.32,5.46-5.91,5.46h-4.46v6.49h-2.69ZM52.79,185.82h4.35c2.12,0,3.22-1.33,3.22-3s-1.1-3-3.22-3h-4.35v6ZM73.91,177.36h12.21v2.45h-9.51v4.8h8.17v2.45h-8.17v5.27h9.78v2.45h-12.48v-17.41ZM105.15,177.37c3.59,0,5.92,2.03,5.92,5.28,0,2.39-1.37,4.16-3.53,4.91l4.22,7.21h-3.13l-3.94-6.83h-4.35v6.83h-2.69v-17.4h7.49ZM100.36,179.8v5.74h4.67c2.14,0,3.24-1.19,3.24-2.89s-1.1-2.86-3.24-2.86h-4.67ZM120.84,177.36h14.16v2.53h-5.73v14.89h-2.68v-14.89h-5.74v-2.53ZM146.46,189.69c.83,1.7,2.44,2.92,4.8,2.92,2.01,0,3.58-.96,3.58-2.49s-1.38-2.1-3.95-2.92c-3.31-1.07-5.91-2.17-5.89-5.25.03-3.18,3.03-4.85,5.92-4.85,3.22,0,5.27,1.73,6.24,3.59l-2.09,1.46c-.74-1.35-2.15-2.6-4.15-2.6-1.65,0-3.22.85-3.22,2.39s1.42,1.95,3.89,2.78c3.24,1.1,5.95,2,5.95,5.37s-3.24,4.94-6.23,4.94c-3.41,0-5.86-1.75-6.86-3.95l2.01-1.4Z"/>
  </g>
  <g id="BLACK_černá">
    <path class="st0" d="M0,86.6v-50.66h23.69c9.44,0,16.08,5.11,16.08,13.5,0,5.07-2.54,8.95-7.05,11.53,5.97,2.24,8.47,6.38,8.47,11.79,0,7.68-5.89,13.84-15.82,13.84H0ZM21.79,56.57c3.39,0,5.22-2.54,5.22-5.19s-2.01-5.19-5.6-5.19h-9.14v10.37h9.51ZM22.27,76.37c3.54,0,5.6-2.65,5.6-5.15,0-2.76-2.01-5.26-5.6-5.26h-10v10.41h10ZM139.15,35.94h36.86v10.33h-24.58v9.66h19.29v10.33h-19.29v20.33h-12.27v-50.66ZM211.21,86.6h-12.27v-50.66h12.27v50.66ZM276.59,76.3h-25.7v-40.36h-12.27v50.66h37.98v-10.3ZM336.64,76.3h-25.7v-40.36h-12.27v50.66h37.98v-10.3ZM358.71,86.6h36.3v-10.3h-24.02v-10.33h20.7v-10.3h-20.7v-9.4h23.65v-10.33h-35.92v50.66ZM412.71,86.6h14.36l12.09-17.31,12.09,17.31h14.36l-19.21-25.93,18.24-24.73h-14.36l-11.12,15.78-11.12-15.78h-14.36l18.24,24.73-19.21,25.93Z"/>
    <path class="st3" d="M90.21,35.24c-.66-.04-1.11.71-.75,1.27,5.09,8.04,13.76,16.55,13.76,24.18,0,8.09-6.56,14.65-14.65,14.65-8.09,0-14.65-6.56-14.65-14.65,0-7.63,8.68-16.14,13.76-24.18.36-.56-.09-1.31-.75-1.27-13.9.8-24.83,11.91-24.83,25.99,0,15.03,12.12,26.11,26.45,26.11,15.03,0,26.49-11.9,26.49-26.11s-10.94-25.16-24.83-25.98Z"/>
    <path class="st0" d="M424.75,21.22c0-3.36,2.46-5.69,5.89-5.69s5.84,2.34,5.84,5.7-2.44,5.72-5.84,5.72-5.89-2.35-5.89-5.73ZM445.14,15.51c0-2.41,1.77-4.09,4.23-4.09s4.2,1.68,4.2,4.1-1.76,4.11-4.2,4.11-4.23-1.69-4.23-4.11ZM436.48,2.85c0-1.68,1.23-2.85,2.95-2.85s2.92,1.17,2.92,2.85-1.22,2.86-2.92,2.86-2.95-1.18-2.95-2.86Z"/>
    <path class="st0" d="M1.27,131.74v-17.41h7.52c3.29,0,5.31,2.22,5.31,4.87,0,1.4-.72,2.82-1.91,3.51,1.63.69,2.56,2.28,2.56,3.99,0,2.84-2.3,5.04-5.45,5.04H1.27ZM8.78,121.74c1.6,0,2.59-1.17,2.59-2.48s-.91-2.54-2.59-2.54H3.97v5.02h4.81ZM3.97,129.33h5.32c1.7,0,2.78-1.24,2.78-2.68s-1.13-2.64-2.78-2.64H3.97v5.32ZM25.01,123.06c0-5.22,3.86-8.99,8.99-8.99s9,3.77,9,8.99-3.83,8.94-9,8.94-8.99-3.68-8.99-8.94ZM34,129.45c3.73,0,6.18-2.58,6.18-6.41s-2.45-6.41-6.18-6.41-6.17,2.67-6.17,6.41,2.49,6.41,6.17,6.41ZM51.9,114.33h14.16v2.53h-5.73v14.89h-2.68v-14.89h-5.74v-2.53ZM75.53,114.33h14.16v2.53h-5.73v14.89h-2.68v-14.89h-5.74v-2.53ZM112.72,131.74h-12.62v-17.41h2.71v14.96h9.91v2.45ZM125.88,131.74h-2.69v-17.41h2.69v17.41ZM138.35,131.74v-17.41h2.69l10.6,13.27v-13.27h2.69v17.41h-2.72l-10.58-13.14v13.14h-2.69ZM165.71,123.03c0-5.08,3.91-8.96,8.95-8.96,3.17,0,5.81,1.5,7.44,3.95l-2.09,1.46c-1.44-1.92-3.05-2.86-5.35-2.86-3.58,0-6.14,2.69-6.14,6.41s2.62,6.41,6.21,6.41c3.35,0,5.25-2.01,5.59-4.37h-6v-2.44h8.8c.04.35.05.68.05,1.01,0,4.53-3.1,8.35-8.44,8.35-5.05,0-9.01-3.87-9.01-8.96ZM3.65,153.99c-1.46-1.45-2.03-2.55-2.03-3.89,0-2.65,2.14-4.51,5.17-4.51s4.95,1.77,4.95,4.23c0,2.19-1.89,3.65-4.23,4.64l4.1,3.91c.36-.58.51-1.43.51-2.45,0-.6-.06-1.33-.19-2.18h2.41c.09.79.15,1.51.15,2.12,0,1.59-.29,2.87-1.15,4.01l3.53,3.39h-3.49l-1.68-1.56c-1.06.82-2.78,1.82-5.32,1.82-3.76,0-6.39-1.99-6.39-4.81,0-1.87,1.27-3.51,3.65-4.72ZM6.48,161.28c1.65,0,2.86-.58,3.57-1.2l-4.78-4.55c-.92.44-2.72,1.31-2.72,3.05,0,1.58,1.64,2.7,3.94,2.7ZM5.9,152.92c2.04-.9,3.37-1.74,3.37-3.03s-.99-2.12-2.45-2.12c-1.6,0-2.72.92-2.72,2.26,0,1.22.77,1.91,1.8,2.89ZM39.3,145.84h12.12v2.45h-9.43v4.86h7.4v2.45h-7.4v7.66h-2.69v-17.41ZM64.72,163.26h-2.69v-17.41h2.69v17.41ZM89.81,163.26h-12.62v-17.41h2.71v14.96h9.91v2.45ZM112.88,163.26h-12.62v-17.41h2.71v14.96h9.91v2.45ZM126.03,163.26h-2.69v-17.41h2.69v17.41ZM138.51,163.26v-17.41h2.69l10.6,13.27v-13.27h2.69v17.41h-2.72l-10.58-13.14v13.14h-2.69ZM165.87,154.55c0-5.08,3.91-8.96,8.95-8.96,3.17,0,5.81,1.5,7.44,3.95l-2.09,1.46c-1.44-1.92-3.05-2.86-5.35-2.86-3.58,0-6.14,2.69-6.14,6.41s2.62,6.41,6.21,6.41c3.35,0,5.24-2.01,5.59-4.37h-6v-2.44h8.8c.04.35.05.68.05,1.01,0,4.53-3.1,8.35-8.44,8.35-5.05,0-9.02-3.87-9.02-8.96ZM1.27,177.36h12.21v2.45H3.96v4.8h8.17v2.45H3.96v5.27h9.78v2.45H1.27v-17.41ZM29.89,185.82l-6.12-8.46h3.36l4.5,6.42,4.48-6.42h3.37l-6.1,8.46,6.44,8.95h-3.37l-4.81-6.82-4.81,6.82h-3.37l6.44-8.95ZM50.1,194.78v-17.4h7.16c3.59,0,5.91,2.22,5.91,5.45s-2.32,5.46-5.91,5.46h-4.46v6.49h-2.69ZM52.79,185.82h4.35c2.12,0,3.22-1.33,3.22-3s-1.1-3-3.22-3h-4.35v6ZM73.91,177.36h12.21v2.45h-9.51v4.8h8.17v2.45h-8.17v5.27h9.78v2.45h-12.48v-17.41ZM105.15,177.37c3.59,0,5.92,2.03,5.92,5.28,0,2.39-1.37,4.16-3.53,4.91l4.22,7.21h-3.13l-3.94-6.83h-4.35v6.83h-2.69v-17.4h7.49ZM100.36,179.8v5.74h4.67c2.14,0,3.24-1.19,3.24-2.89s-1.1-2.86-3.24-2.86h-4.67ZM120.84,177.36h14.16v2.53h-5.73v14.89h-2.68v-14.89h-5.74v-2.53ZM146.46,189.69c.83,1.7,2.44,2.92,4.8,2.92,2.01,0,3.58-.96,3.58-2.49s-1.38-2.1-3.95-2.92c-3.31-1.07-5.91-2.17-5.89-5.25.03-3.18,3.03-4.85,5.92-4.85,3.22,0,5.27,1.73,6.24,3.59l-2.09,1.46c-.74-1.35-2.15-2.6-4.15-2.6-1.65,0-3.22.85-3.22,2.39s1.42,1.95,3.89,2.78c3.24,1.1,5.95,2,5.95,5.37s-3.24,4.94-6.23,4.94c-3.41,0-5.86-1.75-6.86-3.95l2.01-1.4Z"/>
  </g>
</svg>